<?xml version="1.0" standalone="no"?>
<!DOCTYPE svg PUBLIC "-//W3C//DTD SVG 20010904//EN"
 "http://www.w3.org/TR/2001/REC-SVG-20010904/DTD/svg10.dtd">
<svg version="1.0" xmlns="http://www.w3.org/2000/svg"
 width="1024.000000pt" height="1024.000000pt" viewBox="0 0 1024.000000 1024.000000"
 preserveAspectRatio="xMidYMid meet">
<metadata>
Created by potrace 1.11, written by Peter Selinger 2001-2013
</metadata>
<g transform="translate(0.000000,1024.000000) scale(0.100000,-0.100000)"
fill="#000000" stroke="none">
<path d="M5037 9933 c-1 -1 -31 -4 -67 -8 -339 -33 -633 -157 -885 -371 -259
-221 -427 -486 -509 -804 -36 -137 -37 -154 -41 -375 -4 -205 7 -303 49 -450
84 -296 256 -559 503 -772 67 -57 169 -131 203 -146 8 -4 31 -17 50 -29 61
-38 104 -56 117 -51 11 4 13 59 11 288 l-3 284 -39 33 c-291 248 -427 594
-382 968 34 276 204 558 437 723 118 83 288 157 416 181 97 18 280 24 343 11
13 -2 42 -7 64 -11 68 -10 197 -54 281 -96 169 -85 300 -202 411 -368 35 -54
64 -101 64 -105 0 -4 11 -32 25 -60 32 -68 65 -189 80 -295 6 -37 6 -210 0
-250 -15 -120 -44 -219 -94 -325 -56 -119 -117 -203 -233 -317 l-98 -97 0 -83
c-2 -339 1 -472 11 -478 11 -7 187 77 209 100 3 3 19 14 35 24 44 28 177 140
244 207 163 162 317 427 387 668 24 83 27 94 38 161 15 92 21 320 11 429 -8
83 -42 239 -71 327 -39 119 -156 349 -222 437 -159 210 -402 406 -628 505 -68
30 -211 81 -247 88 -10 2 -26 5 -35 8 -42 13 -238 43 -273 42 -16 -1 -29 1
-29 4 0 4 -129 8 -133 3z"/>
<path d="M4960 8901 c-263 -72 -435 -317 -417 -590 11 -154 58 -249 191 -382
l46 -47 0 -870 0 -869 -97 -32 c-280 -92 -522 -261 -688 -484 -42 -56 -84
-106 -92 -111 -9 -5 -24 -4 -37 2 -11 6 -122 43 -246 82 -562 180 -1348 438
-1373 451 -10 6 -31 38 -48 73 -98 206 -289 324 -522 324 -74 0 -102 -5 -191
-36 -96 -34 -111 -43 -172 -101 -136 -131 -195 -268 -189 -434 9 -269 181
-479 444 -543 45 -12 214 -8 261 5 25 7 75 28 112 47 74 36 112 45 143 33 11
-4 162 -54 335 -110 173 -55 367 -118 430 -139 63 -21 275 -90 470 -154 195
-64 361 -120 368 -124 8 -6 14 -47 17 -130 2 -67 11 -166 20 -220 17 -99 97
-355 120 -382 7 -8 23 -35 35 -60 13 -25 52 -87 87 -139 52 -76 61 -95 50
-105 -7 -6 -22 -24 -32 -41 -10 -16 -48 -70 -85 -120 -108 -147 -401 -550
-463 -638 -32 -45 -69 -93 -81 -107 -13 -14 -25 -30 -27 -36 -9 -26 -336 -464
-349 -469 -8 -2 -37 -7 -65 -10 -84 -10 -94 -13 -181 -55 -137 -66 -246 -185
-294 -322 -73 -210 -22 -426 140 -588 111 -111 219 -157 383 -165 143 -6 289
50 398 155 68 65 117 141 150 230 19 53 24 84 24 165 0 55 -4 125 -8 155 -8
59 -7 60 97 203 36 49 306 420 518 712 123 171 265 366 314 435 l89 126 120
-38 c66 -20 135 -40 154 -43 18 -3 36 -7 40 -9 13 -8 176 -20 264 -19 158 2
258 19 426 73 71 22 111 26 111 9 0 -6 43 -69 95 -140 52 -71 95 -132 95 -136
0 -4 11 -18 24 -32 13 -15 108 -143 211 -286 271 -374 367 -508 478 -657 54
-73 101 -144 104 -157 3 -14 1 -50 -5 -81 -51 -245 76 -505 300 -615 99 -48
175 -64 294 -59 90 4 103 7 193 50 78 38 109 60 166 118 80 81 130 171 151
268 17 80 11 223 -14 308 -30 107 -141 244 -247 305 -64 37 -175 75 -230 79
-29 2 -60 9 -71 16 -18 11 -231 297 -338 454 -26 39 -61 86 -77 104 -16 18
-38 50 -49 71 -11 22 -23 41 -28 43 -10 3 -63 76 -345 465 -108 149 -197 277
-197 283 0 7 13 29 28 49 108 138 189 289 237 441 50 159 67 271 69 444 l1 99
75 24 c104 33 669 216 820 266 69 23 127 42 130 42 3 1 12 4 20 7 16 6 251 81
260 83 3 1 50 16 105 34 55 18 105 34 110 36 6 1 17 5 25 8 94 36 127 36 196
0 247 -127 489 -90 684 106 64 64 122 171 143 266 14 61 15 173 3 233 -17 87
-85 217 -147 283 -111 118 -270 177 -449 166 -207 -13 -363 -115 -463 -304
l-47 -89 -74 -27 c-40 -15 -79 -27 -88 -27 -8 0 -18 -3 -22 -7 -3 -4 -12 -8
-19 -9 -7 -1 -55 -16 -107 -34 -52 -17 -158 -51 -235 -76 -77 -25 -243 -79
-370 -121 -126 -41 -234 -76 -240 -77 -5 -2 -124 -40 -263 -85 -139 -46 -254
-82 -256 -80 -1 2 -24 36 -51 74 -69 99 -204 235 -312 316 -94 71 -243 153
-323 178 -25 8 -54 22 -65 32 -21 19 -22 19 -60 19 -35 0 -61 30 -59 65 1 17
3 402 3 857 l1 828 74 80 c145 157 189 318 147 527 -11 51 -24 98 -30 105 -6
7 -29 40 -50 73 -63 98 -113 142 -218 194 -116 58 -275 75 -393 42z"/>
<path d="M1510 7463 c-133 -21 -289 -60 -360 -90 -8 -3 -17 -7 -20 -8 -34 -12
-63 -25 -167 -77 -186 -92 -367 -238 -497 -398 -20 -25 -41 -50 -46 -57 -22
-27 -100 -152 -132 -213 -283 -536 -232 -1196 131 -1677 108 -142 272 -295
421 -390 165 -106 408 -197 615 -230 62 -10 394 -11 455 -1 213 34 427 110
578 205 29 18 54 33 57 33 2 0 39 26 82 59 91 67 223 191 223 208 0 12 -157
74 -225 89 -20 4 -200 62 -229 73 -61 24 -96 24 -134 -1 -94 -61 -219 -111
-373 -149 -100 -24 -262 -26 -376 -4 -370 71 -642 279 -797 609 -36 79 -74
194 -81 251 -2 11 -6 40 -10 65 -9 53 -9 220 0 258 3 15 7 38 10 52 20 108 54
199 112 292 13 21 23 46 23 56 0 43 152 227 245 296 22 17 42 33 45 36 7 9
148 92 190 112 87 40 176 66 295 84 49 7 241 7 275 0 14 -3 51 -11 83 -16 194
-36 381 -137 537 -292 86 -85 148 -173 214 -305 25 -51 56 -99 68 -107 13 -8
55 -24 93 -36 39 -12 143 -46 232 -76 89 -30 169 -54 177 -54 32 0 30 82 -5
215 -6 22 -12 47 -14 55 -8 37 -61 172 -97 245 -185 376 -516 672 -901 804
-71 25 -280 73 -347 80 -38 5 -328 8 -350 4z"/>
<path d="M8368 7465 c-2 -2 -32 -7 -68 -10 -35 -3 -67 -8 -70 -10 -4 -2 -20
-7 -37 -9 -67 -12 -213 -60 -300 -97 -355 -156 -635 -427 -798 -772 -41 -85
-98 -244 -109 -299 -2 -12 -9 -43 -15 -68 -5 -25 -13 -66 -16 -92 -6 -46 -6
-48 18 -48 39 0 521 161 534 179 6 9 16 25 21 36 5 11 19 43 31 70 71 158 238
346 397 447 89 56 231 115 324 133 99 20 149 25 255 25 221 1 373 -47 574
-179 237 -156 414 -419 456 -676 2 -11 7 -38 11 -60 10 -59 11 -242 2 -294 -4
-25 -10 -64 -14 -86 -16 -98 -97 -276 -173 -380 -178 -244 -416 -394 -700
-439 -129 -20 -320 -15 -401 11 -36 11 -98 31 -139 44 -40 13 -108 42 -150 66
-42 24 -86 46 -98 49 -12 3 -59 -6 -105 -21 -46 -15 -90 -29 -98 -31 -8 -2
-87 -27 -175 -56 -104 -35 -161 -58 -163 -68 -8 -47 262 -261 443 -353 69 -34
185 -84 215 -93 114 -31 209 -54 248 -59 26 -4 61 -9 77 -11 50 -7 286 -7 345
0 129 15 317 62 410 103 177 78 320 161 420 245 74 63 194 186 243 251 29 37
57 67 63 67 7 0 15 12 19 28 3 15 19 47 35 72 68 108 154 322 185 463 2 10 6
26 9 35 3 9 7 35 10 57 3 22 9 60 12 85 8 54 12 271 6 284 -3 5 -6 25 -8 45
-26 288 -162 617 -347 836 -107 128 -290 287 -407 354 -102 59 -146 81 -225
112 -93 38 -128 49 -205 69 -124 33 -249 47 -402 48 -75 0 -138 -2 -140 -3z"/>
<path d="M2880 3448 c-52 -4 -115 -10 -140 -12 -25 -2 -65 -9 -90 -16 -25 -7
-52 -14 -60 -16 -21 -5 -75 -20 -135 -37 -56 -16 -226 -98 -319 -154 -236
-142 -473 -410 -591 -669 -20 -43 -41 -87 -46 -97 -16 -30 -59 -185 -81 -292
-29 -140 -31 -429 -4 -562 92 -457 354 -839 734 -1071 29 -18 57 -32 62 -32 6
0 10 -4 10 -8 0 -10 135 -70 237 -106 78 -28 215 -62 288 -71 28 -4 61 -9 75
-11 31 -5 266 -5 300 0 14 2 48 7 75 10 28 4 57 8 65 11 8 2 26 6 40 9 379 66
766 328 991 671 138 210 233 471 256 705 20 197 4 387 -48 581 -41 151 -136
369 -161 369 -7 0 -31 -26 -53 -57 -22 -31 -45 -61 -50 -67 -6 -6 -28 -37 -50
-70 -22 -32 -49 -69 -61 -81 -11 -12 -29 -36 -40 -52 -10 -17 -34 -52 -51 -78
-37 -55 -40 -80 -17 -151 22 -69 27 -305 9 -408 -71 -390 -337 -698 -717 -829
-190 -66 -416 -71 -622 -16 -41 11 -59 18 -126 47 -182 79 -364 226 -465 376
-52 77 -119 215 -134 273 -34 133 -41 162 -47 198 -7 47 -7 229 0 265 3 13 8
42 11 65 10 65 72 242 111 314 73 133 167 242 294 337 165 124 332 193 515
210 111 11 134 25 203 126 13 18 74 103 137 188 110 150 113 156 96 173 -19
20 -28 21 -186 32 -55 3 -104 7 -110 9 -5 1 -53 -2 -105 -6z"/>
<path d="M6938 3429 c-37 -6 -68 -24 -68 -40 0 -5 6 -9 13 -9 8 0 83 -97 168
-215 153 -213 176 -237 234 -241 380 -29 715 -252 883 -589 43 -86 88 -212 98
-272 13 -83 12 -319 -2 -398 -43 -246 -199 -502 -403 -656 -58 -44 -198 -120
-286 -156 -91 -37 -212 -57 -350 -57 -134 0 -172 5 -325 44 -67 16 -239 102
-306 151 -133 96 -288 284 -348 421 -73 165 -97 288 -91 478 2 69 6 136 9 150
36 154 41 132 -77 292 -46 62 -95 131 -110 153 -14 22 -37 53 -51 69 -14 16
-26 35 -26 41 0 15 -26 38 -46 41 -8 1 -24 -16 -36 -39 -11 -23 -29 -53 -38
-67 -10 -14 -18 -29 -19 -35 -2 -18 -44 -140 -57 -166 -7 -15 -15 -37 -18 -50
-2 -13 -11 -60 -19 -104 -41 -213 -41 -430 -1 -628 8 -39 17 -87 21 -105 3
-18 10 -35 14 -38 5 -3 9 -15 9 -28 0 -12 4 -26 8 -32 4 -5 14 -27 21 -49 7
-22 39 -92 69 -155 115 -234 336 -477 571 -625 164 -102 421 -196 611 -221 87
-12 165 -18 230 -18 72 0 230 13 240 19 3 2 21 6 40 9 55 9 69 12 170 41 52
15 100 30 105 35 6 4 21 11 35 15 92 28 294 147 410 243 93 76 226 219 289
311 119 175 221 405 247 561 3 19 8 38 11 42 2 5 10 54 17 111 13 108 14 304
1 396 -8 60 -9 65 -25 136 -6 28 -13 59 -16 69 -11 55 -87 266 -100 276 -8 7
-14 18 -14 24 0 20 -97 175 -169 269 -100 133 -235 257 -383 353 -87 56 -321
171 -366 179 -17 3 -42 9 -56 15 -15 5 -26 8 -26 5 0 -2 -15 1 -32 6 -18 5
-46 12 -63 15 -16 3 -48 10 -70 16 -43 12 -463 18 -527 7z"/>
</g>
</svg>
